<?xml version="1.0" encoding="utf-8"?>
<svg xmlns="http://www.w3.org/2000/svg" viewBox="0 0 50 50" width="500" height="500">
  <path d="M19.984375 1.9863281 A 1.0001 1.0001 0 0 0 19 3L19 8 A 1.0001 1.0001 0 1 0 21 8L21 3 A 1.0001 1.0001 0 0 0 19.984375 1.9863281 z M 45.980469 2.9902344 A 1.0001 1.0001 0 0 0 45.292969 3.2929688L3.2929688 45.292969 A 1.0001 1.0001 0 1 0 4.7070312 46.707031L46.707031 4.7070312 A 1.0001 1.0001 0 0 0 45.980469 2.9902344 z M 7.96875 6.96875 A 1.0001 1.0001 0 0 0 7.2714844 8.6855469L10.808594 12.222656 A 1.0001 1.0001 0 1 0 12.222656 10.808594L8.6855469 7.2714844 A 1.0001 1.0001 0 0 0 7.96875 6.96875 z M 32.001953 6.96875 A 1.0001 1.0001 0 0 0 31.314453 7.2714844L27.777344 10.808594 A 1.0001 1.0001 0 1 0 29.191406 12.222656L32.728516 8.6855469 A 1.0001 1.0001 0 0 0 32.001953 6.96875 z M 20.001953 11.007812C17.697328 11.007812 15.391719 11.885625 13.636719 13.640625C11.935719 15.339625 11 17.601859 11 20.005859C11 22.408859 11.936719 24.668188 13.636719 26.367188C14.141719 26.872188 14.694344 27.293391 15.277344 27.650391L16.746094 26.181641C16.137094 25.865641 15.561781 25.464125 15.050781 24.953125C13.728781 23.631125 13 21.874859 13 20.005859C13 18.135859 13.728781 16.376688 15.050781 15.054688C16.415781 13.690687 18.207 13.007813 20 13.007812C21.793 13.007812 23.584219 13.690687 24.949219 15.054688C25.454219 15.559688 25.860641 16.133047 26.181641 16.748047L27.650391 15.279297C27.289391 14.692297 26.864234 14.139625 26.365234 13.640625C24.610734 11.885625 22.306578 11.007812 20.001953 11.007812 z M 44.984375 15.986328 A 1.0001 1.0001 0 0 0 44 17L44 18L43 18 A 1.0001 1.0001 0 1 0 43 20L44 20L44 21 A 1.0001 1.0001 0 1 0 46 21L46 20L47 20 A 1.0001 1.0001 0 1 0 47 18L46 18L46 17 A 1.0001 1.0001 0 0 0 44.984375 15.986328 z M 3 19 A 1.0001 1.0001 0 1 0 3 21L8 21 A 1.0001 1.0001 0 1 0 8 19L3 19 z M 37.5 25C31.712628 25 27 29.712628 27 35.5C27 41.287372 31.712628 46 37.5 46C43.287372 46 48 41.287372 48 35.5C48 35.262723 47.97994 35.077373 47.972656 34.941406 A 1.0001 1.0001 0 0 0 46.130859 34.457031C45.153502 35.985739 43.454476 37 41.5 37C38.45039 37 36 34.54961 36 31.5C36 29.545524 37.014261 27.846498 38.542969 26.869141 A 1.0001 1.0001 0 0 0 38.058594 25.027344C37.922627 25.02006 37.737277 25 37.5 25 z M 35.34375 27.433594C34.552049 28.621678 34 29.969352 34 31.5C34 35.63039 37.36961 39 41.5 39C43.030648 39 44.378322 38.447951 45.566406 37.65625C44.596955 41.284819 41.441121 44 37.5 44C32.793372 44 29 40.206628 29 35.5C29 31.558879 31.715181 28.403045 35.34375 27.433594 z M 11.496094 27.474609 A 1.0001 1.0001 0 0 0 10.808594 27.777344L7.2714844 31.314453 A 1.0001 1.0001 0 1 0 8.6855469 32.728516L12.222656 29.191406 A 1.0001 1.0001 0 0 0 11.496094 27.474609 z M 21.984375 41.986328 A 1.0001 1.0001 0 0 0 21 43L21 44L20 44 A 1.0001 1.0001 0 1 0 20 46L21 46L21 47 A 1.0001 1.0001 0 1 0 23 47L23 46L24 46 A 1.0001 1.0001 0 1 0 24 44L23 44L23 43 A 1.0001 1.0001 0 0 0 21.984375 41.986328 z" />
</svg>